<svg width="512" height="512" viewBox="0 0 512 512" fill="none" xmlns="http://www.w3.org/2000/svg">
<g clip-path="url(#clip0)">
<path d="M182.855 274.285H329.145C359.426 274.254 383.965 249.711 384 219.43V91.4297C383.965 61.1445 359.426 36.6055 329.145 36.5703H182.855C152.574 36.6055 128.035 61.1445 128 91.4297V219.43C128.035 249.711 152.574 274.254 182.855 274.285V274.285ZM292.57 128C292.57 122.949 296.664 118.855 301.715 118.855C306.766 118.855 310.855 122.949 310.855 128V146.285C310.855 151.336 306.766 155.43 301.715 155.43C296.664 155.43 292.57 151.336 292.57 146.285V128ZM228.57 192C229 194.836 235.312 201.145 256 201.145C276.688 201.145 283 194.836 283.445 191.492C283.457 189.094 284.43 186.801 286.148 185.129C287.867 183.457 290.184 182.547 292.582 182.602C297.676 182.723 301.738 186.902 301.715 192C301.715 193.121 301.195 219.43 256 219.43C210.805 219.43 210.285 193.121 210.285 192C210.285 186.949 214.379 182.855 219.43 182.855C224.477 182.855 228.57 186.949 228.57 192V192ZM201.145 128C201.145 122.949 205.234 118.855 210.285 118.855C215.336 118.855 219.43 122.949 219.43 128V146.285C219.43 151.336 215.336 155.43 210.285 155.43C205.234 155.43 201.145 151.336 201.145 146.285V128Z" fill="white"/>
<path d="M192 292.57H320V320H192V292.57Z" fill="white"/>
<path d="M219.43 0H292.57V18.2852H219.43V0Z" fill="white"/>
<path d="M81.8359 365.863C49.625 365.719 21.2773 387.094 12.5547 418.102L4.11328 479.508C4.07422 479.828 4.01562 480.148 3.92969 480.461C1.38672 490.781 0.0664062 501.367 0 512H56.3125L81.8359 365.863Z" fill="white"/>
<path d="M507.887 479.508L499.445 418.102C490.727 387.109 462.398 365.746 430.207 365.871L455.688 512H512C511.93 501.367 510.609 490.781 508.062 480.457C507.98 480.145 507.922 479.828 507.887 479.508Z" fill="white"/>
<path d="M91.4297 512H437.125L408.07 345.371C405.547 340.445 400.219 337.617 394.723 338.285H117.34C111.766 337.605 106.379 340.547 103.938 345.602L74.8789 512H91.4297Z" fill="white"/>
</g>
<defs>
<clipPath id="clip0">
<rect width="512" height="512" fill="white"/>
</clipPath>
</defs>
</svg>
